<svg xmlns="http://www.w3.org/2000/svg" viewBox="0 0 32 32">
  <path d="M4 6c0-1 2-2 5-2 2.5 0 5.5 1 7 3 1.5-2 4.5-3 7-3 3 0 5 1 5 2v18c0 .5-.5 1-1 1-.2 0-.3 0-.5-.1C25 23.5 22.5 23 21 23c-2 0-4 .5-5 2-1-1.5-3-2-5-2-1.5 0-4 .5-5.5.9-.2.1-.3.1-.5.1-.5 0-1-.5-1-1V6z" fill="#2c5f7c"/>
  <path d="M16 9v15" stroke="#fff" stroke-width="1" stroke-linecap="round"/>
  <path d="M7 8c1.5-.5 3-.8 4.5-.5" stroke="#fff" stroke-width=".8" stroke-linecap="round" opacity=".6"/>
  <path d="M7 11c1.5-.5 3-.8 4.5-.5" stroke="#fff" stroke-width=".8" stroke-linecap="round" opacity=".6"/>
  <path d="M7 14c1.5-.5 3-.8 4.5-.5" stroke="#fff" stroke-width=".8" stroke-linecap="round" opacity=".6"/>
  <path d="M20.5 7.5c1.5-.3 3 0 4.5.5" stroke="#fff" stroke-width=".8" stroke-linecap="round" opacity=".6"/>
  <path d="M20.5 10.5c1.5-.3 3 0 4.5.5" stroke="#fff" stroke-width=".8" stroke-linecap="round" opacity=".6"/>
  <path d="M20.5 13.5c1.5-.3 3 0 4.5.5" stroke="#fff" stroke-width=".8" stroke-linecap="round" opacity=".6"/>
</svg>
